<svg width="24" height="23" viewBox="0 0 24 23" fill="none" xmlns="http://www.w3.org/2000/svg">
<path fill-rule="evenodd" clip-rule="evenodd" d="M19.9791 18.25C19.9182 18.2044 19.8552 18.1616 19.7901 18.1216C19.7666 18.1071 19.7428 18.0931 19.7188 18.0794C19.6886 18.0622 19.6581 18.0456 19.6271 18.0296C19.5829 18.0068 19.538 17.9852 19.4923 17.965C19.4134 17.93 19.3323 17.899 19.2494 17.8721C19.1609 17.8435 19.0703 17.8196 18.9778 17.8008C18.8142 17.7675 18.6448 17.75 18.4713 17.75C17.9055 17.75 17.3834 17.936 16.9633 18.25H19.9791ZM8.15502 17.8027C8.14078 17.8057 8.12657 17.8088 8.11241 17.812C8.02494 17.8317 7.93922 17.856 7.85551 17.8845C7.79271 17.906 7.73106 17.9298 7.67065 17.9559C7.60541 17.9841 7.54162 18.015 7.47939 18.0484C7.46274 18.0573 7.44621 18.0664 7.4298 18.0757C7.40357 18.0906 7.37765 18.1059 7.35202 18.1216C7.28702 18.1616 7.22402 18.2045 7.16308 18.25C6.55285 18.7061 6.1579 19.4322 6.1579 20.25C6.1579 21.6307 7.28299 22.75 8.67085 22.75C10.0587 22.75 11.1838 21.6307 11.1838 20.25C11.1838 19.4322 10.7891 18.7061 10.1789 18.25H7.16308C7.22402 18.2045 7.28702 18.1616 7.35202 18.1216C7.37765 18.1059 7.40357 18.0906 7.4298 18.0757C7.44621 18.0664 7.46274 18.0573 7.47939 18.0484C7.54162 18.015 7.60541 17.9841 7.67065 17.9559C7.73106 17.9298 7.79271 17.906 7.85551 17.8845C7.95278 17.8514 8.05277 17.824 8.15502 17.8027ZM8.67085 19.75C8.39328 19.75 8.16826 19.9739 8.16826 20.25C8.16826 20.5261 8.39328 20.75 8.67085 20.75C8.94842 20.75 9.17344 20.5261 9.17344 20.25C9.17344 19.9739 8.94842 19.75 8.67085 19.75Z" fill="white" fill-opacity="0.74"/>
<path fill-rule="evenodd" clip-rule="evenodd" d="M19.7901 18.1216C19.7666 18.1071 19.7428 18.0931 19.7188 18.0794C19.6886 18.0622 19.6581 18.0456 19.6271 18.0296C19.6827 18.0583 19.7371 18.089 19.7901 18.1216Z" fill="white" fill-opacity="0.74"/>
<path fill-rule="evenodd" clip-rule="evenodd" d="M1.13201 0.5C0.576865 0.5 0.126831 0.947715 0.126831 1.5C0.126831 2.05228 0.576865 2.5 1.13201 2.5H2.59971L4.29972 9.60325L5.42976 14.4749C5.45067 14.565 5.48346 14.6499 5.52626 14.7282L6.18524 17.4816C6.29305 17.9321 6.69762 18.25 7.16308 18.25C7.22402 18.2045 7.28702 18.1616 7.35202 18.1216C7.37765 18.1059 7.40357 18.0906 7.4298 18.0757C7.44621 18.0664 7.46274 18.0573 7.47939 18.0484C7.54162 18.015 7.60541 17.9841 7.67065 17.9559C7.73106 17.9298 7.79271 17.906 7.85551 17.8845C7.93922 17.856 8.02494 17.8317 8.11241 17.812C8.12657 17.8088 8.14078 17.8057 8.15502 17.8027C8.32151 17.7682 8.49405 17.75 8.67085 17.75C9.23668 17.75 9.75883 17.936 10.1789 18.25H16.9633C17.3834 17.936 17.9055 17.75 18.4713 17.75C18.6448 17.75 18.8142 17.7675 18.9778 17.8008C19.0703 17.8196 19.1609 17.8435 19.2494 17.8721C19.3323 17.899 19.4134 17.93 19.4923 17.965C19.538 17.9852 19.5829 18.0068 19.6271 18.0296C19.6581 18.0456 19.6886 18.0622 19.7188 18.0794C19.7428 18.0931 19.7666 18.1071 19.7901 18.1216C19.8552 18.1616 19.9182 18.2044 19.9791 18.25C20.5343 18.25 20.9843 17.8023 20.9843 17.25C20.9843 16.6977 20.5343 16.25 19.9791 16.25H7.95703L7.7177 15.25H19.9791C20.4472 15.25 20.8533 14.9286 20.9586 14.4749L23.2202 4.72486C23.2891 4.42792 23.2181 4.11594 23.0274 3.87745C22.8367 3.63896 22.5471 3.5 22.2408 3.5H4.9056L4.37151 1.26838C4.2637 0.817911 3.85912 0.5 3.39366 0.5H1.13201ZM19.1795 13.25H7.23905L6.25702 9.14675L5.41111 5.5H20.9772L19.1795 13.25ZM10.1789 18.25C9.75883 17.936 9.23668 17.75 8.67085 17.75C8.49405 17.75 8.32151 17.7682 8.15502 17.8027C8.14078 17.8057 8.12657 17.8088 8.11241 17.812C8.02494 17.8317 7.93922 17.856 7.85551 17.8845C7.79271 17.906 7.73106 17.9298 7.67065 17.9559C7.60541 17.9841 7.54162 18.015 7.47939 18.0484C7.46274 18.0573 7.44621 18.0664 7.4298 18.0757C7.40357 18.0906 7.37765 18.1059 7.35202 18.1216C7.28702 18.1616 7.22402 18.2045 7.16308 18.25H10.1789Z" fill="white" fill-opacity="0.74"/>
<path fill-rule="evenodd" clip-rule="evenodd" d="M19.9791 18.25C19.9182 18.2044 19.8552 18.1616 19.7901 18.1216C19.7666 18.1071 19.7428 18.0931 19.7188 18.0794C19.6886 18.0622 19.6581 18.0456 19.6271 18.0296C19.5829 18.0068 19.538 17.9852 19.4923 17.965C19.4134 17.93 19.3323 17.899 19.2494 17.8721C19.1609 17.8435 19.0703 17.8196 18.9778 17.8008C18.8142 17.7675 18.6448 17.75 18.4713 17.75C17.9055 17.75 17.3834 17.936 16.9633 18.25H19.9791Z" fill="white" fill-opacity="0.74"/>
<path fill-rule="evenodd" clip-rule="evenodd" d="M19.9791 18.25C19.9792 18.25 19.9791 18.25 19.9791 18.25H16.9633C16.3531 18.7061 15.9584 19.4322 15.9584 20.25C15.9584 21.6307 17.0835 22.75 18.4713 22.75C19.8592 22.75 20.9843 21.6307 20.9843 20.25C20.9843 19.4322 20.5894 18.7061 19.9791 18.25ZM17.9688 20.25C17.9688 19.9739 18.1938 19.75 18.4713 19.75C18.7489 19.75 18.9739 19.9739 18.9739 20.25C18.9739 20.5261 18.7489 20.75 18.4713 20.75C18.1938 20.75 17.9688 20.5261 17.9688 20.25Z" fill="white" fill-opacity="0.74"/>
</svg>
