<svg width="18" height="18" viewBox="0 0 18 18" xmlns="http://www.w3.org/2000/svg">
<path fill-rule="evenodd" clip-rule="evenodd" d="M12.7651 11H11.9998L11.7285 10.73C12.6779 9.59 13.2495 8.11 13.2495 6.5C13.2495 2.91 10.4303 0 6.95229 0C3.47426 0 0.655029 2.91 0.655029 6.5C0.655029 10.09 3.47426 13 6.95229 13C8.51207 13 9.94591 12.41 11.0503 11.43L11.3119 11.71V12.5L16.156 17.49L17.5995 16L12.7651 11ZM6.95229 11C4.53995 11 2.59265 8.99 2.59265 6.5C2.59265 4.01 4.53995 2 6.95229 2C9.36462 2 11.3119 4.01 11.3119 6.5C11.3119 8.99 9.36462 11 6.95229 11Z"/>
</svg>
